# xmcd
#
# Track frame offsets:
#	150
#	11312
#	22605
#	33287
#	47197
#	69517
#	85730
#	98682
#	111960
#	123697
#
# Disc length: 1818 seconds
#
# Revision: 0
# Processed by: cddbd v1.5.1PL0 Copyright (c) Steve Scherf et al.
# Submitted via: dBpowerAMP V4.0
#
DISCID=7007180a
DTITLE=Lightnin' Slim - King of the Louisiana Swamp Blues
DYEAR=1996
DGENRE=Blues
TTITLE0=Bad Luck Blues
TTITLE1=GI Blues
TTITLE2=My Babe
TTITLE3=The Things I Used To Do
TTITLE4=Voodoo Blues
TTITLE5=Crazy 'Bout You Baby
TTITLE6=That's All Right
TTITLE7=Good Morning Heartache
TTITLE8=Rooster Blues
TTITLE9=Oh Baby
EXTD=
EXTT0=
EXTT1=
EXTT2=
EXTT3=
EXTT4=
EXTT5=
EXTT6=
EXTT7=
EXTT8=
EXTT9=
PLAYORDER=
